# xmcd
#
# Track frame offsets:
#	150
#	9192
#	30977
#	53837
#	75847
#	101564
#	117891
#	137156
#	153628
#	170624
#	183675
#	202288
#
# Disc length: 2968 seconds
#
# Revision: 1
# Processed by: cddbd v1.5.2PL0 Copyright (c) Steve Scherf et al.
# Submitted via: audiograbber 1.83.01
#
DISCID=970b960c
DTITLE=Berkley Hart - Crow
DYEAR=2011
DGENRE=Country
TTITLE0=Little Boxes
TTITLE1=Hocus Pocus
TTITLE2=My Name Is Sam
TTITLE3=I Still Dream In California
TTITLE4=Barn Sour Horses
TTITLE5=The Magic Is
TTITLE6=Up The River
TTITLE7=No Place Like Home
TTITLE8=Stay Away A Little Closer
TTITLE9=Bad Day
TTITLE10=Not My Heart
TTITLE11=All Of These Walls
EXTD=
EXTT0=
EXTT1=
EXTT2=
EXTT3=
EXTT4=
EXTT5=
EXTT6=
EXTT7=
EXTT8=
EXTT9=
EXTT10=
EXTT11=
PLAYORDER=
